# xmcd
#
# Track frame offsets: 
#        150
#        21402
#        35342
#        51664
#        67675
#        88908
#        105247
#        129374
#        143897
#        166018
#
# Disc length: 2487 seconds
#
# Revision: 0
# Processed by: cddbd v1.5.2PL0 Copyright (c) Steve Scherf et al.
# Submitted via: ExactAudioCopy v1.0b1
#
DISCID=7e09b50a
DTITLE=The Dramatics - Any Time Any Place
DYEAR=1979
DGENRE=Soul
TTITLE0=I Just Wanna Dance With You
TTITLE1=Bottom Line Woman
TTITLE2=That's My Favorite Song
TTITLE3=I Think About You
TTITLE4=Get With The Band And Dance
TTITLE5=Life Is Just A Playground
TTITLE6=I'm Hooked On You
TTITLE7=Stranger (In My Life)
TTITLE8=Love Birds
TTITLE9=Marriage On Paper Only
EXTD=
EXTT0=
EXTT1=
EXTT2=
EXTT3=
EXTT4=
EXTT5=
EXTT6=
EXTT7=
EXTT8=
EXTT9=
PLAYORDER=
